<svg width="60" height="60" viewBox="0 0 200 60" xmlns="http://www.w3.org/2000/svg">
  <defs>
    <linearGradient id="gradient1" x1="0%" y1="0%" x2="100%" y2="0%">
      <stop offset="0%" style="stop-color:#4C97FF;stop-opacity:1" />
      <stop offset="100%" style="stop-color:#FF4C59;stop-opacity:1" />
    </linearGradient>
  </defs>
  
  <!-- Icon: Two overlapping puzzle pieces representing collaboration -->
  <g transform="translate(5, 10)">
    <!-- First puzzle piece (blue) -->
    <path d="M 10 5 L 20 5 L 20 0 L 25 0 L 25 5 L 30 5 L 30 15 L 35 15 L 35 20 L 30 20 L 30 30 L 20 30 L 20 35 L 15 35 L 15 30 L 5 30 L 5 20 L 10 20 L 10 5 Z" 
          fill="#4C97FF" opacity="0.9"/>
    
    <!-- Second puzzle piece (red, overlapping) -->
    <path d="M 15 10 L 25 10 L 25 5 L 30 5 L 30 10 L 40 10 L 40 20 L 35 20 L 35 25 L 40 25 L 40 35 L 30 35 L 30 30 L 25 30 L 25 35 L 15 35 L 15 25 L 20 25 L 20 20 L 15 20 L 15 10 Z" 
          fill="#FF4C59" opacity="0.9"/>
  </g>
</svg>
