<svg width="48" height="48" viewBox="0 0 48 48" xmlns="http://www.w3.org/2000/svg">
  <defs>
    <linearGradient id="iconGradient" x1="0%" y1="0%" x2="100%" y2="100%">
      <stop offset="0%" style="stop-color:#4C97FF;stop-opacity:1" />
      <stop offset="100%" style="stop-color:#FF4C59;stop-opacity:1" />
    </linearGradient>
  </defs>
  
  <!-- Background circle with gradient -->
  <circle cx="24" cy="24" r="22" fill="url(#iconGradient)"/>
  
  <!-- Two overlapping puzzle pieces in white -->
  <g transform="translate(12, 12)">
    <!-- First puzzle piece -->
    <path d="M 2 1 L 8 1 L 8 0 L 10 0 L 10 1 L 12 1 L 12 6 L 13 6 L 13 8 L 12 8 L 12 12 L 8 12 L 8 13 L 6 13 L 6 12 L 2 12 L 2 8 L 4 8 L 4 6 L 2 6 L 2 1 Z" 
          fill="white" opacity="0.95"/>
    
    <!-- Second puzzle piece (offset) -->
    <path d="M 6 4 L 10 4 L 10 2 L 12 2 L 12 4 L 16 4 L 16 8 L 14 8 L 14 10 L 16 10 L 16 14 L 12 14 L 12 12 L 10 12 L 10 14 L 6 14 L 6 10 L 8 10 L 8 8 L 6 8 L 6 4 Z" 
          fill="white" opacity="0.8"/>
  </g>
  
  <!-- Subtle "Co" text overlay -->
  <text x="24" y="30" font-family="'Arial Rounded MT Bold', Arial, sans-serif" font-size="12" font-weight="bold" fill="white" text-anchor="middle" opacity="0.9">
    Co
  </text>
</svg>
